<svg version="1.0" xmlns="http://www.w3.org/2000/svg"
 width="24" height="24" viewBox="0 0 24 24"
 preserveAspectRatio="xMidYMid meet">

<g transform="translate(0.000000,24.000000) scale(0.100000,-0.100000)"
fill="#333333" stroke="#333333">
<path d="M107 234 c-4 -4 -7 -26 -7 -49 0 -25 -6 -48 -15 -55 -11 -9 -45 -101
-45 -124 0 -3 36 -6 80 -6 44 0 80 3 80 8 0 21 -32 108 -44 121 -8 9 -16 36
-18 60 -3 42 -16 60 -31 45z m23 -59 c0 -19 -4 -35 -10 -35 -5 0 -10 16 -10
35 0 19 5 35 10 35 6 0 10 -16 10 -35z m20 -70 c11 -13 7 -15 -30 -15 -37 0
-41 2 -30 15 16 19 44 19 60 0z m21 -62 c5 -14 4 -23 -1 -23 -6 0 -10 6 -10
14 0 8 -5 18 -11 22 -8 4 -9 0 -4 -15 4 -12 2 -21 -4 -21 -6 0 -11 9 -11 20 0
11 -4 20 -10 20 -5 0 -10 -9 -10 -20 0 -11 -4 -20 -9 -20 -5 0 -7 10 -5 23 l5
22 -12 -22 c-7 -13 -16 -23 -21 -23 -5 0 -7 3 -5 8 2 4 7 15 10 25 10 28 87
20 98 -10z"/>
</g>
</svg>
