<svg width="16" height="16" viewBox="0 0 15 15" fill="none" xmlns="http://www.w3.org/2000/svg">
<g id="Iconsax/Linear/trash">
<path id="image 21 (Traced)" fill-rule="evenodd" clip-rule="evenodd" d="M7.91835 1.00716C9.18702 1.09447 10.3857 1.53636 11.3874 2.28598C11.7607 2.56536 12.2425 3.02585 12.5256 3.37384C13.7827 4.91905 14.2641 6.89094 13.8608 8.84354C13.646 9.88367 13.1414 10.906 12.4358 11.7307C12.2832 11.909 11.9671 12.2269 11.7721 12.3982C10.5986 13.4287 9.07521 14 7.50048 14C6.07244 14 4.71371 13.5426 3.57182 12.6774C2.4087 11.7961 1.56778 10.5322 1.20519 9.12041C0.905138 7.95219 0.934522 6.73896 1.29099 5.57742C1.34758 5.39299 1.47127 5.05594 1.48878 5.03842C1.49462 5.03258 1.66316 5.09555 1.86333 5.17834C2.16789 5.30429 2.22696 5.33301 2.22535 5.35439C2.22427 5.36844 2.19263 5.46264 2.15501 5.56374C1.71631 6.74283 1.69999 8.09318 2.10971 9.31392C2.50743 10.4989 3.30093 11.5352 4.34319 12.2306C5.11674 12.7468 5.95442 13.0499 6.91015 13.1595C7.18865 13.1915 7.81508 13.1913 8.09081 13.1592C8.53402 13.1076 8.92019 13.0233 9.31049 12.8929C10.2338 12.5845 11.0885 12.0215 11.7369 11.2947C12.8115 10.0903 13.3211 8.51844 13.1574 6.91288C12.9858 5.22884 12.0655 3.70498 10.6511 2.76277C9.64317 2.09131 8.45073 1.75967 7.25022 1.81688C6.58195 1.84874 5.98185 1.97936 5.36467 2.22729C5.17851 2.30207 4.8075 2.48103 4.8075 2.49604C4.8075 2.50264 4.95431 2.71118 5.13376 2.95947C5.31321 3.20776 5.45684 3.41411 5.45295 3.41801C5.44387 3.42709 2.67034 3.83521 2.64926 3.83057C2.63939 3.82838 2.83208 3.30453 3.16317 2.43349C3.4545 1.66701 3.69741 1.02933 3.70297 1.01642C3.71086 0.998052 3.76989 1.07174 3.97406 1.35486C4.11761 1.55392 4.25295 1.74146 4.27479 1.7716L4.31453 1.82643L4.58424 1.69113C4.90026 1.53259 5.1416 1.43125 5.44393 1.3301C5.91089 1.17388 6.41356 1.06801 6.91678 1.01991C7.11636 1.00084 7.7157 0.993194 7.91835 1.00716Z" fill="#FFF"/>
</g>
</svg>
